<svg width="1024" height="261" viewBox="0 0 1024 261" fill="none" xmlns="http://www.w3.org/2000/svg">
<g clip-path="url(#clip0_301_2)">
<path d="M0 0.819336H1024V260.783H0V0.819336Z" fill="black"/>
<path d="M121.26 211.237V50.367H193.023C206.945 50.367 217.925 53.649 225.961 60.213C234.118 66.6563 238.196 75.6946 238.196 87.3279C238.196 99.0819 233.998 108.181 225.594 114.624C217.311 120.947 205.942 124.108 191.48 124.108H149.366V211.237H121.26ZM149.366 100.33H186.265C193.305 100.33 198.814 98.7183 202.791" fill="white"/>
<path d="M121.259 211.237V50.367H193.022C206.944 50.367 217.924 53.649 225.96 60.213C234.117 66.6563 238.195 75.6946 238.195 87.3279C238.195 99.0819 233.997 108.181 225.593 114.624C217.31 120.947 205.941 124.108 191.479 124.108H149.365V211.237H121.259ZM149.365 100.33H186.264C193.304 100.33 198.813 98.7183 202.79 97.495C206.888 96.151 209.73 94.3033 211.317 91.9519C212.903 89.5999 213.7 86.8833 213.7 83.8019C213.7 80.7206 212.903 78.004 211.317 75.6526C209.73 73.1806 206.888 71.3329 202.79 70.11C198.813 68.7663 193.304 68.0943 186.264 68.0943H149.365V100.33Z" fill="#F8C22D"/>
<path d="M259.967 211.237V50.367H288.072V211.237H259.967Z" fill="#F8C22D"/>
<path d="M374.335 130.792C374.335 119.038 370.213 109.818 361.965 103.131C353.717 96.4443 342.527 93.099 328.395 93.099C314.263 93.099 303.073 96.4443 294.825 103.131C286.577 109.818 282.453 119.038 282.453 130.792C282.453 142.546 286.577 151.767 294.825 158.453C303.073 165.14 314.263 168.484 328.395 168.484C342.527 168.484 353.717 165.14 361.965 158.453C370.213 151.767 374.335 142.546 374.335 130.792ZM300.932 130.792C300.932 123.631 303.045 117.948 307.272 113.743C311.498 109.538 317.398 107.435 324.972 107.435C332.546 107.435 338.446 109.538 342.673 113.743C346.9 117.948 349.013 123.631 349.013 130.792C349.013 137.953 346.9 143.636 342.673 147.841C338.446 152.046 332.546 154.148 324.972 154.148C317.398 154.148 311.498 152.046 307.272 147.841C303.045 143.636 300.932 137.953 300.932 130.792Z" fill="#F8C22D"/>
<path d="M470.931 168.484C485.063 168.484 496.253 165.14 504.501 158.453C512.749 151.767 516.873 142.546 516.873 130.792C516.873 119.038 512.749 109.818 504.501 103.131C496.253 96.4443 485.063 93.099 470.931 93.099H420.21V211.237H392.105V50.367H470.931C490.871 50.367 506.634 55.0833 518.22 64.516C529.927 73.8279 535.779 86.4219 535.779 102.298C535.779 113.109 532.745 122.585 526.674 130.725C520.603 138.865 512.01 145.029 500.893 149.217C512.01 153.405 520.603 159.569 526.674 167.709C532.745 175.849 535.779 185.325 535.779 196.136C535.779 211.892 529.927 224.486 518.22 233.919C506.634 243.231 490.871 247.887 470.931 247.887H392.105V219.782L470.931 219.782V211.237H420.21V168.484H470.931ZM420.21 144.706V74.145H465.716C472.756 74.145 478.265 75.7566 482.242 78.9799C486.219 82.0826 488.206 86.1303 488.206 91.1229C488.206 96.1156 486.219 100.163 482.242 103.266C478.265 106.369 472.756 107.92 465.716 107.92H420.21V116.206H465.716C475.27 116.206 482.684 118.054 487.958 121.749C493.353 125.444 496.05 130.347 496.05 136.458C496.05 142.569 493.353 147.472 487.958 151.167C482.684 154.862 475.27 156.709 465.716 156.709H420.21V144.706Z" fill="#F8C22D"/>
<path d="M558.077 211.237V50.367H643.082V74.145H586.182V119.57H636.326V143.348H586.182V187.459H644.291V211.237H558.077Z" fill="#F8C22D"/>
<path d="M729.083 168.484C743.214 168.484 754.404 165.14 762.652 158.453C770.9 151.767 775.024 142.546 775.024 130.792C775.024 119.038 770.9 109.818 762.652 103.131C754.404 96.4443 743.214 93.099 729.083 93.099H678.361V211.237H650.256V50.367H729.083C749.022 50.367 764.785 55.0833 776.371 64.516C788.078 73.8279 793.931 86.4219 793.931 102.298C793.931 113.109 790.896 122.585 784.825 130.725C778.754 138.865 770.161 145.029 759.044 149.217C770.161 153.405 778.754 159.569 784.825 167.709C790.896 175.849 793.931 185.325 793.931 196.136C793.931 211.892 788.078 224.486 776.371 233.919C764.785 243.231 749.022 247.887 729.083 247.887H650.256V219.782L729.083 219.782V211.237H678.361V168.484H729.083ZM678.361 144.706V74.145H723.867C730.907 74.145 736.416 75.7566 740.393 78.9799C744.37 82.0826 746.357 86.1303 746.357 91.1229C746.357 96.1156 744.37 100.163 740.393 103.266C736.416 106.369 730.907 107.92 723.867 107.92H678.361V116.206H723.867C733.421 116.206 740.835 118.054 746.109 121.749C751.504 125.444 754.201 130.347 754.201 136.458C754.201 142.569 751.504 147.472 746.109 151.167C740.835 154.862 733.421 156.709 723.867 156.709H678.361V144.706Z" fill="#F8C22D"/>
<path d="M814.156 211.237V50.367H842.261V211.237H814.156Z" fill="#F8C22D"/>
<path d="M926.626 130.792C926.626 119.038 922.504 109.818 914.256 103.131C905.991 96.4443 894.818 93.099 880.686 93.099C866.554 93.099 855.364 96.4443 847.116 103.131C838.868 109.818 834.744 119.038 834.744 130.792C834.744 142.546 838.868 s151.767 847.116 158.453C855.364 165.14 866.554 168.484 880.686 168.484C894.818 168.484 905.991 165.14 914.256 158.453C922.504 151.767 926.626 142.546 926.626 130.792ZM853.223 130.792C853.223 123.631 855.336 117.948 859.563 113.743C863.789 109.538 869.689 107.435 877.263 107.435C884.837 107.435 890.737 109.538 894.964 113.743C899.191 117.948 901.304 123.631 901.304 130.792C901.304 137.953 899.191 143.636 894.964 147.841C890.737 152.046 884.837 154.148 877.263 154.148C869.689 154.148 863.789 152.046 859.563 147.841C855.336 143.636 853.223 137.953 853.223 130.792Z" fill="#F8C22D"/>
<path d="M1024 130.792C1024 119.038 1019.88 109.818 1011.63 103.131C1003.38 96.4443 992.191 93.099 978.059 93.099H927.337V211.237H899.232V50.367H978.059C997.999 50.367 1013.76 55.0833 1025.35 64.516C1037.05 73.8279 1042.9 86.4219 1042.9 102.298C1042.9 118.295 1037.05 130.95 1025.35 140.261C1013.76 149.573 997.999 154.229 978.059 154.229H927.337V187.459H980.966V211.237H927.337V247.887H900.441L899.232 211.237H927.337V154.229H978.059C985.099 154.229 990.608 152.617 994.585 149.394C998.562 146.171 1000.55 142.003 1000.55 136.89C1000.55 131.777 998.562 127.609 994.585 124.386C990.608 121.163 985.099 119.552 978.059 119.552H927.337V74.145H978.059C994.619 74.145 1006.8 79.1376 1014.6 89.1229C1022.52 99.1083 1026.48 111.95 1026.48 127.649L1024 130.792Z" fill="#F8C22D"/>
</g>
<defs>
<clipPath id="clip0_301_2">
<rect width="1024" height="260" fill="white" transform="translate(0 0.819336)"/>
</clipPath>
</defs>
</svg>
